<?xml version="1.0" encoding="utf-8"?>
<!-- Generator: Adobe Illustrator 18.0.0, SVG Export Plug-In . SVG Version: 6.00 Build 0)  -->
<!DOCTYPE svg PUBLIC "-//W3C//DTD SVG 1.1//EN" "http://www.w3.org/Graphics/SVG/1.1/DTD/svg11.dtd">
<svg version="1.1" id="图层_1" xmlns="http://www.w3.org/2000/svg" xmlns:xlink="http://www.w3.org/1999/xlink" x="0px" y="0px"
	 viewBox="0 0 76 76" enable-background="new 0 0 76 76" xml:space="preserve">
<path fill="#FF6600" d="M23.5,46.1l1.6,2.7l4.3,1.2l4.1-2.4l1.4-0.8l2.7-1.6l0.8,1.4L37.3,51l-6.9,4l-8.7-2.3l-3.2-5.5l2.3-8.7
	l6.9-4l4.3,1.2l0.8,1.4l-2.7,1.6l-1.4,0.8l-4.1,2.4L23.5,46.1z M38.7,28.2l6.9-4l8.7,2.3l3.2,5.5l-2.3,8.7l-6.9,4l-4.3-1.2l-0.8-1.4
	l2.7-1.6l1.4-0.8l4.1-2.4l1.2-4.3l-1.6-2.7l-4.3-1.2l-4.1,2.4l-1.4,0.8l-2.7,1.6l-0.8-1.4L38.7,28.2z M33.9,45.1l-2.2-0.6l-1.2-2.1
	l0.6-2.2l11-6.3l2.2,0.6l1.2,2.1l-0.6,2.2L33.9,45.1z"/>
</svg>
