<?xml version="1.0" encoding="utf-8"?>
<!-- Generator: Adobe Illustrator 18.0.0, SVG Export Plug-In . SVG Version: 6.00 Build 0)  -->
<!DOCTYPE svg PUBLIC "-//W3C//DTD SVG 1.1//EN" "http://www.w3.org/Graphics/SVG/1.1/DTD/svg11.dtd">
<svg version="1.1" id="图层_1" xmlns="http://www.w3.org/2000/svg" xmlns:xlink="http://www.w3.org/1999/xlink" x="0px" y="0px"
	 viewBox="0 0 76 76" enable-background="new 0 0 76 76" xml:space="preserve">
<path fill="#FF6600" d="M38,23.8c8.7,0,15.8,7.1,15.8,15.8S46.7,55.4,38,55.4s-15.8-7.1-15.8-15.8S29.3,23.8,38,23.8z M38,27.7
	c-6.6,0-11.9,5.3-11.9,11.9c0,6.6,5.3,11.9,11.9,11.9s11.9-5.3,11.9-11.9C49.9,33,44.6,27.7,38,27.7z M37.6,30.9
	c0.9,0,1.6,0.7,1.6,1.6v5.9h5.9c0.9,0,1.6,0.7,1.6,1.6v0.8c0,0.9-0.7,1.6-1.6,1.6H38c-0.8-0.1-1.6-0.3-2-0.7c-0.5-0.5-0.6-1.3-0.7-2
	v-7.1c0-0.9,0.7-1.6,1.6-1.6H37.6z M49.1,20.6c3.5,0,6.3,2.8,6.3,6.3c0,1.5-0.5,2.9-1.4,4c-2.1-3.8-5.4-6.8-9.5-8.3
	C45.6,21.3,47.3,20.6,49.1,20.6z M26.9,20.6c1.8,0,3.4,0.8,4.6,2c-4.1,1.6-7.5,4.5-9.5,8.3c-0.9-1.1-1.4-2.5-1.4-4
	C20.6,23.4,23.4,20.6,26.9,20.6z"/>
</svg>
